<svg width="18" height="21" viewBox="0 0 18 21" fill="none" xmlns="http://www.w3.org/2000/svg">
<path d="M17.5878 4.5748L13.0261 0.72927C12.8165 0.55269 12.5322 0.45459 12.234 0.45459H11.9498V5.47732H17.914V5.23795C17.914 4.99074 17.7975 4.75138 17.5878 4.5748ZM10.4588 5.79124V0.45459H1.13976C0.520051 0.45459 0.0214844 0.874458 0.0214844 1.39635V19.6037C0.0214844 20.1256 0.520051 20.5455 1.13976 20.5455H16.7957C17.4154 20.5455 17.914 20.1256 17.914 19.6037V6.733H11.577C10.962 6.733 10.4588 6.30921 10.4588 5.79124ZM13.4408 12.0696V13.9532C13.4408 14.1258 13.2731 14.2671 13.0681 14.2671H10.4588V16.4645C10.4588 16.6372 10.291 16.7785 10.086 16.7785H7.84944C7.64442 16.7785 7.47668 16.6372 7.47668 16.4645V14.2671H4.86736C4.66234 14.2671 4.4946 14.1258 4.4946 13.9532V12.0696C4.4946 11.897 4.66234 11.7557 4.86736 11.7557H7.47668V9.55828C7.47668 9.38563 7.64442 9.24436 7.84944 9.24436H10.086C10.291 9.24436 10.4588 9.38563 10.4588 9.55828V11.7557H13.0681C13.2731 11.7557 13.4408 11.897 13.4408 12.0696Z" fill="white"/>
</svg>
