<svg width="17" height="19" viewBox="0 0 17 19" fill="none" xmlns="http://www.w3.org/2000/svg">
<path d="M5.50433 14.2325L8.22133 11.5155L10.9383 14.2325L12.4013 12.7695L9.68433 10.0525L12.4013 7.3355L10.9383 5.8725L8.22133 8.5895L5.50433 5.8725L4.04133 7.3355L6.75833 10.0525L4.04133 12.7695L5.50433 14.2325ZM2.99633 18.935C2.42158 18.935 1.92956 18.7304 1.52027 18.3211C1.11097 17.9118 0.906328 17.4198 0.906328 16.845V3.26H-0.138672V1.17H5.08633V0.125H11.3563V1.17H16.5813V3.26H15.5363V16.845C15.5363 17.4198 15.3317 17.9118 14.9224 18.3211C14.5131 18.7304 14.0211 18.935 13.4463 18.935H2.99633ZM13.4463 3.26H2.99633V16.845H13.4463V3.26Z" fill="white"/>
</svg>
