<svg width="18" height="18" viewBox="0 0 18 18" fill="none" xmlns="http://www.w3.org/2000/svg">
<path d="M1.92296 15.3837H3.29307L12.6915 5.98522L11.3214 4.61511L1.92296 14.0136V15.3837ZM0 17.3066V13.2204L12.6915 0.552851C12.8838 0.37658 13.0962 0.24037 13.3285 0.144222C13.5609 0.048074 13.8053 0 14.0617 0C14.318 0 14.5664 0.048074 14.8068 0.144222C15.0472 0.24037 15.2555 0.384592 15.4318 0.576888L16.7538 1.92296C16.9461 2.09923 17.0863 2.30755 17.1744 2.54792C17.2626 2.78829 17.3066 3.02866 17.3066 3.26903C17.3066 3.52543 17.2626 3.7698 17.1744 4.00216C17.0863 4.23452 16.9461 4.44685 16.7538 4.63914L4.08629 17.3066H0ZM11.9945 5.31218L11.3214 4.61511L12.6915 5.98522L11.9945 5.31218Z" fill="white"/>
</svg>
