<svg width="57" height="49" viewBox="0 0 57 49" fill="none" xmlns="http://www.w3.org/2000/svg">
<path d="M10.8566 0.675396C18.937 -0.522949 56.4943 0.238446 56.4943 0.238446L56.6288 8.20035C56.6288 8.20035 18.7865 7.64964 14.7464 8.18218C10.7063 8.71472 8.41681 11.3283 8.14747 13.0591C7.87813 14.7898 8.14747 28.7691 8.14747 28.7691C3.81587 28.7166 -0.600214 20.9936 0.067273 14.1241C0.751204 7.08541 2.77619 1.87374 10.8566 0.675396Z" fill="#13263E"/>
<rect x="9.30542" y="23.726" width="8.77348" height="17.5162" fill="#1CBDAB"/>
<rect x="19.4082" y="18.949" width="8.50762" height="22.2933" fill="#1CBDAB"/>
<rect x="29.2451" y="14.1715" width="8.77348" height="27.8667" fill="#1CBDAB"/>
<path d="M38.9492 10.1908H47.7227V40.9768H38.9492V10.1908Z" fill="#1CBDAB"/>
<path d="M44.6674 47.7113C36.6851 48.8636 0.708374 48.4081 0.708374 48.4081L0.708375 40.1808C0.708375 40.1808 38.0589 40.5106 42.0496 40.0009C46.0403 39.4911 48.1828 36.583 48.4578 34.8594C48.7328 33.1357 48.5407 19.2012 48.5407 19.2012C52.816 19.276 57.1343 26.9965 56.4392 33.8399C55.7269 40.8518 52.6497 46.559 44.6674 47.7113Z" fill="#1CBDAB"/>
</svg>
